<svg width="18" height="18" viewBox="0 0 18 18" fill="none" xmlns="http://www.w3.org/2000/svg">
<path d="M11.4133 7.07145C12.0343 7.07145 12.5383 7.57545 12.5383 8.19645V12.5351C12.5383 13.473 12.1657 14.3725 11.5025 15.0357C10.8393 15.6989 9.93983 16.0714 9.00193 16.0714C8.06403 16.0714 7.16454 15.6989 6.50135 15.0357C5.83815 14.3725 5.46557 13.473 5.46557 12.5351V8.19645C5.46557 7.57545 5.96893 7.07145 6.59057 7.07145H11.4133ZM2.41071 7.07145L5.22771 7.07016C5.00271 7.34209 4.85743 7.68216 4.8285 8.05502L4.82207 8.19645V12.5351C4.82207 13.2634 5.00914 13.9487 5.33636 14.5453C4.89594 14.7375 4.41461 14.8169 3.9358 14.7765C3.457 14.7361 2.9958 14.577 2.59383 14.3138C2.19187 14.0505 1.8618 13.6913 1.63342 13.2685C1.40504 12.8457 1.28554 12.3727 1.28571 11.8922V8.19645C1.28636 7.57545 1.78971 7.07145 2.41136 7.07145H2.41071ZM12.7761 7.07016L15.5893 7.07145C16.2103 7.07145 16.7143 7.57545 16.7143 8.19645V11.8929C16.7145 12.3732 16.5951 12.846 16.3668 13.2686C16.1386 13.6913 15.8087 14.0504 15.407 14.3137C15.0052 14.5769 14.5443 14.736 14.0657 14.7766C13.5871 14.8171 13.1059 14.7379 12.6656 14.5459L12.7016 14.4804C12.9774 13.9577 13.1451 13.3689 13.176 12.7447L13.1811 12.5351V8.19645C13.1811 7.7683 13.0288 7.37616 12.7761 7.07016ZM9 1.92859C9.29547 1.92859 9.58805 1.98679 9.86104 2.09986C10.134 2.21293 10.3821 2.37867 10.591 2.5876C10.7999 2.79653 10.9657 3.04457 11.0787 3.31755C11.1918 3.59053 11.25 3.88311 11.25 4.17859C11.25 4.47406 11.1918 4.76664 11.0787 5.03963C10.9657 5.31261 10.7999 5.56065 10.591 5.76958C10.3821 5.97851 10.134 6.14424 9.86104 6.25732C9.58805 6.37039 9.29547 6.42859 9 6.42859C8.40326 6.42859 7.83097 6.19154 7.40901 5.76958C6.98705 5.34762 6.75 4.77533 6.75 4.17859C6.75 3.58185 6.98705 3.00956 7.40901 2.5876C7.83097 2.16564 8.40326 1.92859 9 1.92859ZM14.1448 2.57145C14.398 2.57145 14.6488 2.62133 14.8828 2.71825C15.1168 2.81517 15.3294 2.95723 15.5085 3.13631C15.6876 3.3154 15.8296 3.528 15.9266 3.76199C16.0235 3.99597 16.0734 4.24675 16.0734 4.50002C16.0734 4.75328 16.0235 5.00406 15.9266 5.23805C15.8296 5.47203 15.6876 5.68464 15.5085 5.86372C15.3294 6.04281 15.1168 6.18487 14.8828 6.28179C14.6488 6.37871 14.398 6.42859 14.1448 6.42859C13.6333 6.42859 13.1428 6.2254 12.7811 5.86372C12.4194 5.50205 12.2162 5.01151 12.2162 4.50002C12.2162 3.98853 12.4194 3.49799 12.7811 3.13631C13.1428 2.77463 13.6333 2.57145 14.1448 2.57145ZM3.85521 2.57145C4.10848 2.57145 4.35926 2.62133 4.59325 2.71825C4.82723 2.81517 5.03983 2.95723 5.21892 3.13631C5.398 3.3154 5.54006 3.528 5.63698 3.76199C5.7339 3.99597 5.78378 4.24675 5.78378 4.50002C5.78378 4.75328 5.7339 5.00406 5.63698 5.23805C5.54006 5.47203 5.398 5.68464 5.21892 5.86372C5.03983 6.04281 4.82723 6.18487 4.59325 6.28179C4.35926 6.37871 4.10848 6.42859 3.85521 6.42859C3.34372 6.42859 2.85318 6.2254 2.49151 5.86372C2.12983 5.50205 1.92664 5.01151 1.92664 4.50002C1.92664 3.98853 2.12983 3.49799 2.49151 3.13631C2.85318 2.77463 3.34372 2.57145 3.85521 2.57145Z" fill="#8752CC"/>
</svg>
